<mxfile host="app.diagrams.net" agent="Mozilla/5.0 (Macintosh; Intel Mac OS X 10_15_7) AppleWebKit/537.36 (KHTML, like Gecko) Chrome/134.0.0.0 Safari/537.36" version="26.1.3">
  <diagram name="Page-1" id="PT844Th8oEXxQHsooNQq">
    <mxGraphModel dx="1193" dy="1925" grid="1" gridSize="10" guides="1" tooltips="1" connect="1" arrows="1" fold="1" page="1" pageScale="1" pageWidth="827" pageHeight="1169" math="0" shadow="0">
      <root>
        <mxCell id="0" />
        <mxCell id="1" parent="0" />
        <mxCell id="x-ZnDSSFqjBIY2nWPzBg-1" value="Academic Staff" style="rounded=0;whiteSpace=wrap;html=1;" vertex="1" parent="1">
          <mxGeometry x="190" y="240" width="160" height="60" as="geometry" />
        </mxCell>
        <mxCell id="x-ZnDSSFqjBIY2nWPzBg-3" value="Task" style="rounded=0;whiteSpace=wrap;html=1;" vertex="1" parent="1">
          <mxGeometry x="570" y="790" width="160" height="60" as="geometry" />
        </mxCell>
        <mxCell id="x-ZnDSSFqjBIY2nWPzBg-6" value="Sytem Database" style="rounded=0;whiteSpace=wrap;html=1;" vertex="1" parent="1">
          <mxGeometry x="120" y="680" width="160" height="60" as="geometry" />
        </mxCell>
        <mxCell id="x-ZnDSSFqjBIY2nWPzBg-9" value="st_email" style="ellipse;whiteSpace=wrap;html=1;" vertex="1" parent="1">
          <mxGeometry x="30" y="180" width="110" height="60" as="geometry" />
        </mxCell>
        <mxCell id="x-ZnDSSFqjBIY2nWPzBg-10" value="&lt;u&gt;staff_id&lt;/u&gt;" style="ellipse;whiteSpace=wrap;html=1;" vertex="1" parent="1">
          <mxGeometry x="50" y="90" width="110" height="60" as="geometry" />
        </mxCell>
        <mxCell id="x-ZnDSSFqjBIY2nWPzBg-11" value="staff_name" style="ellipse;whiteSpace=wrap;html=1;" vertex="1" parent="1">
          <mxGeometry x="190" y="30" width="120" height="70" as="geometry" />
        </mxCell>
        <mxCell id="x-ZnDSSFqjBIY2nWPzBg-12" value="Department" style="ellipse;whiteSpace=wrap;html=1;" vertex="1" parent="1">
          <mxGeometry x="337" y="70" width="120" height="60" as="geometry" />
        </mxCell>
        <mxCell id="x-ZnDSSFqjBIY2nWPzBg-13" value="Assigned_task" style="ellipse;whiteSpace=wrap;html=1;" vertex="1" parent="1">
          <mxGeometry x="344" y="160" width="106" height="60" as="geometry" />
        </mxCell>
        <mxCell id="x-ZnDSSFqjBIY2nWPzBg-14" value="" style="endArrow=none;html=1;rounded=0;exitX=0;exitY=0.25;exitDx=0;exitDy=0;entryX=0.945;entryY=0.617;entryDx=0;entryDy=0;entryPerimeter=0;" edge="1" parent="1" source="x-ZnDSSFqjBIY2nWPzBg-1" target="x-ZnDSSFqjBIY2nWPzBg-9">
          <mxGeometry width="50" height="50" relative="1" as="geometry">
            <mxPoint x="90" y="270" as="sourcePoint" />
            <mxPoint x="140" y="220" as="targetPoint" />
          </mxGeometry>
        </mxCell>
        <mxCell id="x-ZnDSSFqjBIY2nWPzBg-17" value="" style="endArrow=none;html=1;rounded=0;exitX=0.213;exitY=-0.067;exitDx=0;exitDy=0;exitPerimeter=0;entryX=0.936;entryY=0.65;entryDx=0;entryDy=0;entryPerimeter=0;" edge="1" parent="1" source="x-ZnDSSFqjBIY2nWPzBg-1" target="x-ZnDSSFqjBIY2nWPzBg-10">
          <mxGeometry width="50" height="50" relative="1" as="geometry">
            <mxPoint x="130" y="160" as="sourcePoint" />
            <mxPoint x="160" y="130" as="targetPoint" />
          </mxGeometry>
        </mxCell>
        <mxCell id="x-ZnDSSFqjBIY2nWPzBg-18" value="" style="endArrow=none;html=1;rounded=0;" edge="1" parent="1" target="x-ZnDSSFqjBIY2nWPzBg-11">
          <mxGeometry width="50" height="50" relative="1" as="geometry">
            <mxPoint x="250" y="240" as="sourcePoint" />
            <mxPoint x="300" y="190" as="targetPoint" />
          </mxGeometry>
        </mxCell>
        <mxCell id="x-ZnDSSFqjBIY2nWPzBg-19" value="" style="endArrow=none;html=1;rounded=0;entryX=0.058;entryY=0.7;entryDx=0;entryDy=0;entryPerimeter=0;" edge="1" parent="1" target="x-ZnDSSFqjBIY2nWPzBg-12">
          <mxGeometry width="50" height="50" relative="1" as="geometry">
            <mxPoint x="280" y="240" as="sourcePoint" />
            <mxPoint x="330" y="190" as="targetPoint" />
          </mxGeometry>
        </mxCell>
        <mxCell id="x-ZnDSSFqjBIY2nWPzBg-21" value="" style="endArrow=none;html=1;rounded=0;entryX=0.368;entryY=0.917;entryDx=0;entryDy=0;entryPerimeter=0;exitX=0.913;exitY=-0.017;exitDx=0;exitDy=0;exitPerimeter=0;" edge="1" parent="1" source="x-ZnDSSFqjBIY2nWPzBg-1" target="x-ZnDSSFqjBIY2nWPzBg-13">
          <mxGeometry width="50" height="50" relative="1" as="geometry">
            <mxPoint x="350" y="270" as="sourcePoint" />
            <mxPoint x="400" y="220" as="targetPoint" />
          </mxGeometry>
        </mxCell>
        <mxCell id="x-ZnDSSFqjBIY2nWPzBg-30" value="Data_type" style="ellipse;whiteSpace=wrap;html=1;" vertex="1" parent="1">
          <mxGeometry x="170" y="552" width="120" height="65" as="geometry" />
        </mxCell>
        <mxCell id="x-ZnDSSFqjBIY2nWPzBg-31" value="List_updated" style="ellipse;whiteSpace=wrap;html=1;" vertex="1" parent="1">
          <mxGeometry x="310" y="585" width="120" height="70" as="geometry" />
        </mxCell>
        <mxCell id="x-ZnDSSFqjBIY2nWPzBg-32" value="&lt;u&gt;Database_id&lt;/u&gt;" style="ellipse;whiteSpace=wrap;html=1;" vertex="1" parent="1">
          <mxGeometry x="30" y="565" width="110" height="65" as="geometry" />
        </mxCell>
        <mxCell id="x-ZnDSSFqjBIY2nWPzBg-33" value="" style="endArrow=none;html=1;rounded=0;exitX=0.125;exitY=0;exitDx=0;exitDy=0;exitPerimeter=0;" edge="1" parent="1" source="x-ZnDSSFqjBIY2nWPzBg-6">
          <mxGeometry width="50" height="50" relative="1" as="geometry">
            <mxPoint x="90" y="670" as="sourcePoint" />
            <mxPoint x="120" y="620" as="targetPoint" />
          </mxGeometry>
        </mxCell>
        <mxCell id="x-ZnDSSFqjBIY2nWPzBg-34" value="" style="endArrow=none;html=1;rounded=0;exitX=0.5;exitY=0;exitDx=0;exitDy=0;" edge="1" parent="1" source="x-ZnDSSFqjBIY2nWPzBg-6">
          <mxGeometry width="50" height="50" relative="1" as="geometry">
            <mxPoint x="190" y="670" as="sourcePoint" />
            <mxPoint x="230" y="620" as="targetPoint" />
          </mxGeometry>
        </mxCell>
        <mxCell id="x-ZnDSSFqjBIY2nWPzBg-35" value="" style="endArrow=none;html=1;rounded=0;entryX=0;entryY=1;entryDx=0;entryDy=0;" edge="1" parent="1" target="x-ZnDSSFqjBIY2nWPzBg-31">
          <mxGeometry width="50" height="50" relative="1" as="geometry">
            <mxPoint x="280" y="690" as="sourcePoint" />
            <mxPoint x="330" y="640" as="targetPoint" />
          </mxGeometry>
        </mxCell>
        <mxCell id="x-ZnDSSFqjBIY2nWPzBg-43" value="status" style="ellipse;whiteSpace=wrap;html=1;" vertex="1" parent="1">
          <mxGeometry x="670" y="557" width="130" height="60" as="geometry" />
        </mxCell>
        <mxCell id="x-ZnDSSFqjBIY2nWPzBg-44" value="task_name" style="ellipse;whiteSpace=wrap;html=1;" vertex="1" parent="1">
          <mxGeometry x="800" y="940" width="130" height="70" as="geometry" />
        </mxCell>
        <mxCell id="x-ZnDSSFqjBIY2nWPzBg-45" value="prority" style="ellipse;whiteSpace=wrap;html=1;" vertex="1" parent="1">
          <mxGeometry x="635" y="960" width="130" height="60" as="geometry" />
        </mxCell>
        <mxCell id="x-ZnDSSFqjBIY2nWPzBg-46" value="&lt;u&gt;Task_id&lt;/u&gt;" style="ellipse;whiteSpace=wrap;html=1;" vertex="1" parent="1">
          <mxGeometry x="850" y="690" width="130" height="70" as="geometry" />
        </mxCell>
        <mxCell id="x-ZnDSSFqjBIY2nWPzBg-47" value="" style="endArrow=none;html=1;rounded=0;exitX=0.442;exitY=0;exitDx=0;exitDy=0;exitPerimeter=0;" edge="1" parent="1">
          <mxGeometry width="50" height="50" relative="1" as="geometry">
            <mxPoint x="510.003762113533" y="969.3240695035968" as="sourcePoint" />
            <mxPoint x="630.3" y="850" as="targetPoint" />
          </mxGeometry>
        </mxCell>
        <mxCell id="x-ZnDSSFqjBIY2nWPzBg-48" value="" style="endArrow=none;html=1;rounded=0;exitX=0.438;exitY=0.073;exitDx=0;exitDy=0;exitPerimeter=0;" edge="1" parent="1" source="x-ZnDSSFqjBIY2nWPzBg-45">
          <mxGeometry width="50" height="50" relative="1" as="geometry">
            <mxPoint x="690" y="950" as="sourcePoint" />
            <mxPoint x="680" y="852" as="targetPoint" />
          </mxGeometry>
        </mxCell>
        <mxCell id="x-ZnDSSFqjBIY2nWPzBg-49" value="" style="endArrow=none;html=1;rounded=0;entryX=0;entryY=1;entryDx=0;entryDy=0;" edge="1" parent="1" target="x-ZnDSSFqjBIY2nWPzBg-43">
          <mxGeometry width="50" height="50" relative="1" as="geometry">
            <mxPoint x="670" y="787" as="sourcePoint" />
            <mxPoint x="730" y="740" as="targetPoint" />
          </mxGeometry>
        </mxCell>
        <mxCell id="x-ZnDSSFqjBIY2nWPzBg-50" value="" style="endArrow=none;html=1;rounded=0;entryX=0;entryY=0.5;entryDx=0;entryDy=0;exitX=1;exitY=0;exitDx=0;exitDy=0;" edge="1" parent="1" source="x-ZnDSSFqjBIY2nWPzBg-3" target="x-ZnDSSFqjBIY2nWPzBg-46">
          <mxGeometry width="50" height="50" relative="1" as="geometry">
            <mxPoint x="710" y="810" as="sourcePoint" />
            <mxPoint x="760" y="760" as="targetPoint" />
            <Array as="points" />
          </mxGeometry>
        </mxCell>
        <mxCell id="x-ZnDSSFqjBIY2nWPzBg-51" value="" style="endArrow=none;html=1;rounded=0;entryX=0.038;entryY=0.343;entryDx=0;entryDy=0;entryPerimeter=0;exitX=1;exitY=1;exitDx=0;exitDy=0;" edge="1" parent="1" source="x-ZnDSSFqjBIY2nWPzBg-3" target="x-ZnDSSFqjBIY2nWPzBg-44">
          <mxGeometry width="50" height="50" relative="1" as="geometry">
            <mxPoint x="730" y="850" as="sourcePoint" />
            <mxPoint x="780" y="800" as="targetPoint" />
            <Array as="points" />
          </mxGeometry>
        </mxCell>
        <mxCell id="x-ZnDSSFqjBIY2nWPzBg-61" value="" style="endArrow=none;html=1;rounded=0;entryX=0.584;entryY=1.019;entryDx=0;entryDy=0;entryPerimeter=0;exitX=1;exitY=0.5;exitDx=0;exitDy=0;" edge="1" parent="1" source="x-ZnDSSFqjBIY2nWPzBg-62" target="x-ZnDSSFqjBIY2nWPzBg-1">
          <mxGeometry width="50" height="50" relative="1" as="geometry">
            <mxPoint x="410" y="480" as="sourcePoint" />
            <mxPoint x="280" y="320" as="targetPoint" />
            <Array as="points">
              <mxPoint x="330" y="370" />
            </Array>
          </mxGeometry>
        </mxCell>
        <mxCell id="x-ZnDSSFqjBIY2nWPzBg-62" value="has" style="rhombus;whiteSpace=wrap;html=1;direction=west;" vertex="1" parent="1">
          <mxGeometry x="440" y="472" width="110" height="80" as="geometry" />
        </mxCell>
        <mxCell id="x-ZnDSSFqjBIY2nWPzBg-63" value="" style="endArrow=none;html=1;rounded=0;exitX=0;exitY=0.5;exitDx=0;exitDy=0;entryX=0.25;entryY=0;entryDx=0;entryDy=0;" edge="1" parent="1" source="x-ZnDSSFqjBIY2nWPzBg-62" target="x-ZnDSSFqjBIY2nWPzBg-3">
          <mxGeometry width="50" height="50" relative="1" as="geometry">
            <mxPoint x="560" y="520" as="sourcePoint" />
            <mxPoint x="610" y="780" as="targetPoint" />
          </mxGeometry>
        </mxCell>
        <mxCell id="x-ZnDSSFqjBIY2nWPzBg-67" value="assigned_staff" style="ellipse;whiteSpace=wrap;html=1;" vertex="1" parent="1">
          <mxGeometry x="480" y="960" width="120" height="80" as="geometry" />
        </mxCell>
        <mxCell id="x-ZnDSSFqjBIY2nWPzBg-69" value="approve" style="rhombus;whiteSpace=wrap;html=1;" vertex="1" parent="1">
          <mxGeometry x="1100" y="735" width="80" height="90" as="geometry" />
        </mxCell>
        <mxCell id="x-ZnDSSFqjBIY2nWPzBg-82" value="AI Chatbot" style="rounded=0;whiteSpace=wrap;html=1;" vertex="1" parent="1">
          <mxGeometry x="95" y="1021.25" width="160" height="60" as="geometry" />
        </mxCell>
        <mxCell id="x-ZnDSSFqjBIY2nWPzBg-83" value="&lt;u&gt;chatbot_id&lt;/u&gt;" style="ellipse;whiteSpace=wrap;html=1;" vertex="1" parent="1">
          <mxGeometry x="65" y="940" width="120" height="42.5" as="geometry" />
        </mxCell>
        <mxCell id="x-ZnDSSFqjBIY2nWPzBg-84" value="Query_type" style="ellipse;whiteSpace=wrap;html=1;" vertex="1" parent="1">
          <mxGeometry x="255" y="941.25" width="120" height="60" as="geometry" />
        </mxCell>
        <mxCell id="x-ZnDSSFqjBIY2nWPzBg-85" value="responce_data" style="ellipse;whiteSpace=wrap;html=1;" vertex="1" parent="1">
          <mxGeometry x="315" y="1026.25" width="120" height="50" as="geometry" />
        </mxCell>
        <mxCell id="x-ZnDSSFqjBIY2nWPzBg-86" value="" style="endArrow=none;html=1;rounded=0;exitX=0.412;exitY=0.019;exitDx=0;exitDy=0;exitPerimeter=0;entryX=0.674;entryY=0.949;entryDx=0;entryDy=0;entryPerimeter=0;" edge="1" parent="1" source="x-ZnDSSFqjBIY2nWPzBg-82" target="x-ZnDSSFqjBIY2nWPzBg-83">
          <mxGeometry width="50" height="50" relative="1" as="geometry">
            <mxPoint x="125" y="1031.25" as="sourcePoint" />
            <mxPoint x="155" y="991.25" as="targetPoint" />
          </mxGeometry>
        </mxCell>
        <mxCell id="x-ZnDSSFqjBIY2nWPzBg-87" value="" style="endArrow=none;html=1;rounded=0;exitX=0.75;exitY=0;exitDx=0;exitDy=0;entryX=0.07;entryY=0.742;entryDx=0;entryDy=0;entryPerimeter=0;" edge="1" parent="1" source="x-ZnDSSFqjBIY2nWPzBg-82" target="x-ZnDSSFqjBIY2nWPzBg-84">
          <mxGeometry width="50" height="50" relative="1" as="geometry">
            <mxPoint x="215" y="1031.25" as="sourcePoint" />
            <mxPoint x="265" y="981.25" as="targetPoint" />
          </mxGeometry>
        </mxCell>
        <mxCell id="x-ZnDSSFqjBIY2nWPzBg-88" value="" style="endArrow=none;html=1;rounded=0;entryX=0.015;entryY=0.69;entryDx=0;entryDy=0;entryPerimeter=0;exitX=1;exitY=0.75;exitDx=0;exitDy=0;" edge="1" parent="1" source="x-ZnDSSFqjBIY2nWPzBg-82" target="x-ZnDSSFqjBIY2nWPzBg-85">
          <mxGeometry width="50" height="50" relative="1" as="geometry">
            <mxPoint x="215" y="1161.25" as="sourcePoint" />
            <mxPoint x="265" y="1111.25" as="targetPoint" />
          </mxGeometry>
        </mxCell>
        <mxCell id="x-ZnDSSFqjBIY2nWPzBg-90" value="" style="endArrow=none;html=1;rounded=0;" edge="1" parent="1">
          <mxGeometry width="50" height="50" relative="1" as="geometry">
            <mxPoint x="180" y="1020" as="sourcePoint" />
            <mxPoint x="210" y="920" as="targetPoint" />
          </mxGeometry>
        </mxCell>
        <mxCell id="x-ZnDSSFqjBIY2nWPzBg-91" value="queries" style="rhombus;whiteSpace=wrap;html=1;" vertex="1" parent="1">
          <mxGeometry x="170" y="850" width="80" height="80" as="geometry" />
        </mxCell>
        <mxCell id="x-ZnDSSFqjBIY2nWPzBg-92" value="" style="endArrow=none;html=1;rounded=0;entryX=0.598;entryY=1.035;entryDx=0;entryDy=0;entryPerimeter=0;exitX=0.5;exitY=0;exitDx=0;exitDy=0;" edge="1" parent="1" source="x-ZnDSSFqjBIY2nWPzBg-91" target="x-ZnDSSFqjBIY2nWPzBg-6">
          <mxGeometry width="50" height="50" relative="1" as="geometry">
            <mxPoint x="200" y="850" as="sourcePoint" />
            <mxPoint x="250" y="800" as="targetPoint" />
          </mxGeometry>
        </mxCell>
        <mxCell id="x-ZnDSSFqjBIY2nWPzBg-102" value="University Calendar" style="rounded=0;whiteSpace=wrap;html=1;" vertex="1" parent="1">
          <mxGeometry x="845" y="150" width="160" height="60" as="geometry" />
        </mxCell>
        <mxCell id="x-ZnDSSFqjBIY2nWPzBg-103" value="&lt;u&gt;Calendar_id&lt;/u&gt;" style="ellipse;whiteSpace=wrap;html=1;" vertex="1" parent="1">
          <mxGeometry x="685" y="17" width="130" height="60" as="geometry" />
        </mxCell>
        <mxCell id="x-ZnDSSFqjBIY2nWPzBg-104" value="date" style="ellipse;whiteSpace=wrap;html=1;" vertex="1" parent="1">
          <mxGeometry x="855" y="-60" width="120" height="60" as="geometry" />
        </mxCell>
        <mxCell id="x-ZnDSSFqjBIY2nWPzBg-105" value="Assigned_staff" style="ellipse;whiteSpace=wrap;html=1;" vertex="1" parent="1">
          <mxGeometry x="1015" y="17" width="130" height="60" as="geometry" />
        </mxCell>
        <mxCell id="x-ZnDSSFqjBIY2nWPzBg-106" value="" style="endArrow=none;html=1;rounded=0;entryX=0.417;entryY=1.033;entryDx=0;entryDy=0;entryPerimeter=0;exitX=0.381;exitY=-0.073;exitDx=0;exitDy=0;exitPerimeter=0;" edge="1" parent="1" source="x-ZnDSSFqjBIY2nWPzBg-102" target="x-ZnDSSFqjBIY2nWPzBg-104">
          <mxGeometry width="50" height="50" relative="1" as="geometry">
            <mxPoint x="905" y="140" as="sourcePoint" />
            <mxPoint x="305" y="600" as="targetPoint" />
          </mxGeometry>
        </mxCell>
        <mxCell id="x-ZnDSSFqjBIY2nWPzBg-107" value="" style="endArrow=none;html=1;rounded=0;entryX=0;entryY=1;entryDx=0;entryDy=0;" edge="1" parent="1" target="x-ZnDSSFqjBIY2nWPzBg-105">
          <mxGeometry width="50" height="50" relative="1" as="geometry">
            <mxPoint x="995" y="150" as="sourcePoint" />
            <mxPoint x="385" y="640" as="targetPoint" />
          </mxGeometry>
        </mxCell>
        <mxCell id="x-ZnDSSFqjBIY2nWPzBg-108" value="" style="endArrow=none;html=1;rounded=0;exitX=0.25;exitY=0;exitDx=0;exitDy=0;" edge="1" parent="1" source="x-ZnDSSFqjBIY2nWPzBg-102" target="x-ZnDSSFqjBIY2nWPzBg-103">
          <mxGeometry width="50" height="50" relative="1" as="geometry">
            <mxPoint x="685" y="450" as="sourcePoint" />
            <mxPoint x="735" y="400" as="targetPoint" />
          </mxGeometry>
        </mxCell>
        <mxCell id="x-ZnDSSFqjBIY2nWPzBg-109" value="" style="endArrow=none;html=1;rounded=0;entryX=0.5;entryY=1;entryDx=0;entryDy=0;" edge="1" parent="1" target="x-ZnDSSFqjBIY2nWPzBg-110">
          <mxGeometry width="50" height="50" relative="1" as="geometry">
            <mxPoint x="680" y="790" as="sourcePoint" />
            <mxPoint x="910" y="480" as="targetPoint" />
          </mxGeometry>
        </mxCell>
        <mxCell id="x-ZnDSSFqjBIY2nWPzBg-110" value="relates" style="rhombus;whiteSpace=wrap;html=1;" vertex="1" parent="1">
          <mxGeometry x="870" y="392" width="80" height="80" as="geometry" />
        </mxCell>
        <mxCell id="x-ZnDSSFqjBIY2nWPzBg-111" value="" style="endArrow=none;html=1;rounded=0;entryX=0.5;entryY=1;entryDx=0;entryDy=0;" edge="1" parent="1" source="x-ZnDSSFqjBIY2nWPzBg-110" target="x-ZnDSSFqjBIY2nWPzBg-102">
          <mxGeometry width="50" height="50" relative="1" as="geometry">
            <mxPoint x="710" y="420" as="sourcePoint" />
            <mxPoint x="760" y="370" as="targetPoint" />
          </mxGeometry>
        </mxCell>
        <mxCell id="x-ZnDSSFqjBIY2nWPzBg-112" value="" style="endArrow=none;html=1;rounded=0;exitX=1;exitY=0.75;exitDx=0;exitDy=0;" edge="1" parent="1" source="x-ZnDSSFqjBIY2nWPzBg-1" target="x-ZnDSSFqjBIY2nWPzBg-113">
          <mxGeometry width="50" height="50" relative="1" as="geometry">
            <mxPoint x="350" y="290" as="sourcePoint" />
            <mxPoint x="490" y="270" as="targetPoint" />
          </mxGeometry>
        </mxCell>
        <mxCell id="x-ZnDSSFqjBIY2nWPzBg-113" value="have" style="rhombus;whiteSpace=wrap;html=1;" vertex="1" parent="1">
          <mxGeometry x="520" y="220" width="80" height="80" as="geometry" />
        </mxCell>
        <mxCell id="x-ZnDSSFqjBIY2nWPzBg-114" value="" style="endArrow=none;html=1;rounded=0;entryX=0;entryY=0.5;entryDx=0;entryDy=0;" edge="1" parent="1" target="x-ZnDSSFqjBIY2nWPzBg-102">
          <mxGeometry width="50" height="50" relative="1" as="geometry">
            <mxPoint x="600" y="260" as="sourcePoint" />
            <mxPoint x="650" y="210" as="targetPoint" />
          </mxGeometry>
        </mxCell>
        <mxCell id="x-ZnDSSFqjBIY2nWPzBg-124" value="" style="endArrow=none;html=1;rounded=0;exitX=1;exitY=0.5;exitDx=0;exitDy=0;" edge="1" parent="1" source="x-ZnDSSFqjBIY2nWPzBg-3">
          <mxGeometry width="50" height="50" relative="1" as="geometry">
            <mxPoint x="1140" y="820" as="sourcePoint" />
            <mxPoint x="1100" y="780" as="targetPoint" />
          </mxGeometry>
        </mxCell>
        <mxCell id="x-ZnDSSFqjBIY2nWPzBg-125" value="" style="endArrow=none;html=1;rounded=0;exitX=1;exitY=0.5;exitDx=0;exitDy=0;" edge="1" parent="1" source="x-ZnDSSFqjBIY2nWPzBg-69">
          <mxGeometry width="50" height="50" relative="1" as="geometry">
            <mxPoint x="1300" y="780" as="sourcePoint" />
            <mxPoint x="1380" y="750" as="targetPoint" />
          </mxGeometry>
        </mxCell>
        <mxCell id="x-ZnDSSFqjBIY2nWPzBg-128" value="Administrative staff" style="rounded=0;whiteSpace=wrap;html=1;" vertex="1" parent="1">
          <mxGeometry x="1290" y="740" width="160" height="60" as="geometry" />
        </mxCell>
        <mxCell id="x-ZnDSSFqjBIY2nWPzBg-129" value="approval_status" style="ellipse;whiteSpace=wrap;html=1;" vertex="1" parent="1">
          <mxGeometry x="1510" y="695" width="130" height="60" as="geometry" />
        </mxCell>
        <mxCell id="x-ZnDSSFqjBIY2nWPzBg-130" value="&lt;u&gt;Admin_id&lt;/u&gt;" style="ellipse;whiteSpace=wrap;html=1;" vertex="1" parent="1">
          <mxGeometry x="1180" y="617" width="130" height="60" as="geometry" />
        </mxCell>
        <mxCell id="x-ZnDSSFqjBIY2nWPzBg-131" value="name" style="ellipse;whiteSpace=wrap;html=1;" vertex="1" parent="1">
          <mxGeometry x="1310" y="584" width="130" height="70" as="geometry" />
        </mxCell>
        <mxCell id="x-ZnDSSFqjBIY2nWPzBg-132" value="role" style="ellipse;whiteSpace=wrap;html=1;" vertex="1" parent="1">
          <mxGeometry x="1440" y="617" width="130" height="60" as="geometry" />
        </mxCell>
        <mxCell id="x-ZnDSSFqjBIY2nWPzBg-133" value="" style="endArrow=none;html=1;rounded=0;entryX=0.067;entryY=-0.01;entryDx=0;entryDy=0;entryPerimeter=0;" edge="1" parent="1" source="x-ZnDSSFqjBIY2nWPzBg-130" target="x-ZnDSSFqjBIY2nWPzBg-128">
          <mxGeometry width="50" height="50" relative="1" as="geometry">
            <mxPoint x="1200" y="780" as="sourcePoint" />
            <mxPoint x="1250" y="730" as="targetPoint" />
          </mxGeometry>
        </mxCell>
        <mxCell id="x-ZnDSSFqjBIY2nWPzBg-134" value="" style="endArrow=none;html=1;rounded=0;entryX=0.5;entryY=1;entryDx=0;entryDy=0;exitX=0.387;exitY=-0.031;exitDx=0;exitDy=0;exitPerimeter=0;" edge="1" parent="1" target="x-ZnDSSFqjBIY2nWPzBg-131" source="x-ZnDSSFqjBIY2nWPzBg-128">
          <mxGeometry width="50" height="50" relative="1" as="geometry">
            <mxPoint x="1310" y="730" as="sourcePoint" />
            <mxPoint x="1360" y="680" as="targetPoint" />
          </mxGeometry>
        </mxCell>
        <mxCell id="x-ZnDSSFqjBIY2nWPzBg-135" value="" style="endArrow=none;html=1;rounded=0;exitX=0.894;exitY=0;exitDx=0;exitDy=0;exitPerimeter=0;entryX=0;entryY=1;entryDx=0;entryDy=0;" edge="1" parent="1" source="x-ZnDSSFqjBIY2nWPzBg-128" target="x-ZnDSSFqjBIY2nWPzBg-132">
          <mxGeometry width="50" height="50" relative="1" as="geometry">
            <mxPoint x="1380" y="720" as="sourcePoint" />
            <mxPoint x="1430" y="670" as="targetPoint" />
          </mxGeometry>
        </mxCell>
        <mxCell id="x-ZnDSSFqjBIY2nWPzBg-136" value="" style="endArrow=none;html=1;rounded=0;exitX=1;exitY=0.5;exitDx=0;exitDy=0;" edge="1" parent="1" source="x-ZnDSSFqjBIY2nWPzBg-128">
          <mxGeometry width="50" height="50" relative="1" as="geometry">
            <mxPoint x="1400" y="790" as="sourcePoint" />
            <mxPoint x="1450" y="740" as="targetPoint" />
          </mxGeometry>
        </mxCell>
        <mxCell id="x-ZnDSSFqjBIY2nWPzBg-138" value="" style="endArrow=none;html=1;rounded=0;entryX=0.054;entryY=0.781;entryDx=0;entryDy=0;entryPerimeter=0;" edge="1" parent="1" target="x-ZnDSSFqjBIY2nWPzBg-129">
          <mxGeometry width="50" height="50" relative="1" as="geometry">
            <mxPoint x="1450" y="770" as="sourcePoint" />
            <mxPoint x="1500" y="720" as="targetPoint" />
          </mxGeometry>
        </mxCell>
        <mxCell id="x-ZnDSSFqjBIY2nWPzBg-139" value="1" style="text;html=1;align=center;verticalAlign=middle;resizable=0;points=[];autosize=1;strokeColor=none;fillColor=none;" vertex="1" parent="1">
          <mxGeometry x="255" y="298" width="30" height="30" as="geometry" />
        </mxCell>
        <mxCell id="x-ZnDSSFqjBIY2nWPzBg-140" value="M" style="text;html=1;align=center;verticalAlign=middle;resizable=0;points=[];autosize=1;strokeColor=none;fillColor=none;" vertex="1" parent="1">
          <mxGeometry x="570" y="755" width="30" height="30" as="geometry" />
        </mxCell>
        <mxCell id="x-ZnDSSFqjBIY2nWPzBg-141" value="1" style="text;html=1;align=center;verticalAlign=middle;resizable=0;points=[];autosize=1;strokeColor=none;fillColor=none;" vertex="1" parent="1">
          <mxGeometry x="1255" y="738" width="30" height="30" as="geometry" />
        </mxCell>
        <mxCell id="x-ZnDSSFqjBIY2nWPzBg-142" value="M" style="text;html=1;align=center;verticalAlign=middle;resizable=0;points=[];autosize=1;strokeColor=none;fillColor=none;" vertex="1" parent="1">
          <mxGeometry x="735" y="790" width="30" height="30" as="geometry" />
        </mxCell>
        <mxCell id="x-ZnDSSFqjBIY2nWPzBg-143" value="1" style="text;html=1;align=center;verticalAlign=middle;resizable=0;points=[];autosize=1;strokeColor=none;fillColor=none;" vertex="1" parent="1">
          <mxGeometry x="895" y="218" width="30" height="30" as="geometry" />
        </mxCell>
        <mxCell id="x-ZnDSSFqjBIY2nWPzBg-144" value="M" style="text;html=1;align=center;verticalAlign=middle;resizable=0;points=[];autosize=1;strokeColor=none;fillColor=none;" vertex="1" parent="1">
          <mxGeometry x="685" y="760" width="30" height="30" as="geometry" />
        </mxCell>
        <mxCell id="x-ZnDSSFqjBIY2nWPzBg-146" value="1" style="text;html=1;align=center;verticalAlign=middle;resizable=0;points=[];autosize=1;strokeColor=none;fillColor=none;" vertex="1" parent="1">
          <mxGeometry x="180" y="991.25" width="30" height="30" as="geometry" />
        </mxCell>
        <mxCell id="x-ZnDSSFqjBIY2nWPzBg-147" value="1" style="text;html=1;align=center;verticalAlign=middle;resizable=0;points=[];autosize=1;strokeColor=none;fillColor=none;" vertex="1" parent="1">
          <mxGeometry x="185" y="738" width="30" height="30" as="geometry" />
        </mxCell>
        <mxCell id="x-ZnDSSFqjBIY2nWPzBg-149" value="M" style="text;html=1;align=center;verticalAlign=middle;resizable=0;points=[];autosize=1;strokeColor=none;fillColor=none;" vertex="1" parent="1">
          <mxGeometry x="355" y="248" width="30" height="30" as="geometry" />
        </mxCell>
        <mxCell id="x-ZnDSSFqjBIY2nWPzBg-150" value="N" style="text;html=1;align=center;verticalAlign=middle;resizable=0;points=[];autosize=1;strokeColor=none;fillColor=none;" vertex="1" parent="1">
          <mxGeometry x="805" y="158" width="30" height="30" as="geometry" />
        </mxCell>
        <mxCell id="x-ZnDSSFqjBIY2nWPzBg-151" value="event_type" style="ellipse;whiteSpace=wrap;html=1;" vertex="1" parent="1">
          <mxGeometry x="1100" y="120" width="140" height="60" as="geometry" />
        </mxCell>
        <mxCell id="x-ZnDSSFqjBIY2nWPzBg-152" value="" style="endArrow=none;html=1;rounded=0;" edge="1" parent="1" target="x-ZnDSSFqjBIY2nWPzBg-151">
          <mxGeometry width="50" height="50" relative="1" as="geometry">
            <mxPoint x="1010" y="180" as="sourcePoint" />
            <mxPoint x="1050" y="140" as="targetPoint" />
          </mxGeometry>
        </mxCell>
      </root>
    </mxGraphModel>
  </diagram>
</mxfile>
